<svg width="35" height="33" viewBox="0 0 35 33" fill="none" xmlns="http://www.w3.org/2000/svg">
<path d="M6.6496 18.3462H11.2992M2 11.0812L5.09973 12.8975L7.06906 5.97408C7.47555 4.54502 7.67879 3.83049 8.05578 3.30222C8.38867 2.83572 8.81619 2.47463 9.29911 2.25205C9.84598 2 10.4887 2 11.7741 2H23.2232C24.5086 2 25.1514 2 25.6982 2.25205C26.1812 2.47463 26.6087 2.83572 26.9416 3.30222C27.3185 3.83049 27.5218 4.54502 27.9283 5.97408L29.8976 12.8975L32.9973 11.0812M23.6981 18.3462H28.3477M9.43936 12.8975H25.558C28.162 12.8975 29.464 12.8975 30.4586 13.4914C31.3335 14.0138 32.0448 14.8473 32.4906 15.8726C32.9973 17.0381 32.9973 18.5639 32.9973 21.6155V26.5194C32.9973 27.3633 32.9973 27.7853 32.9378 28.1362C32.6932 29.5771 31.732 30.7036 30.5023 30.9902C30.2029 31.06 29.8428 31.06 29.1227 31.06H28.3477C26.6358 31.06 25.248 29.4337 25.248 27.4275C25.248 26.926 24.9011 26.5194 24.4731 26.5194H10.5243C10.0963 26.5194 9.74933 26.926 9.74933 27.4275C9.74933 29.4337 8.36154 31.06 6.6496 31.06H5.87467C5.15451 31.06 4.79444 31.06 4.49501 30.9902C3.26537 30.7036 2.30415 29.5771 2.05956 28.1362C2 27.7853 2 27.3633 2 26.5194V21.6155C2 18.5639 2 17.0381 2.50678 15.8726C2.95255 14.8473 3.66385 14.0138 4.53873 13.4914C5.53333 12.8975 6.83534 12.8975 9.43936 12.8975Z" stroke="#0567A6" stroke-width="3" stroke-linecap="round" stroke-linejoin="round"/>
</svg>
