<svg width="22" height="22" viewBox="0 0 22 22" fill="none" xmlns="http://www.w3.org/2000/svg">
<path d="M1 5H3.22222M3.22222 5H21M3.22222 5V19C3.22222 19.5304 3.45635 20.0391 3.8731 20.4142C4.28984 20.7893 4.85507 21 5.44444 21H16.5556C17.1449 21 17.7102 20.7893 18.1269 20.4142C18.5437 20.0391 18.7778 19.5304 18.7778 19V5H3.22222ZM6.55556 5V3C6.55556 2.46957 6.78968 1.96086 7.20643 1.58579C7.62318 1.21071 8.18841 1 8.77778 1H13.2222C13.8116 1 14.3768 1.21071 14.7936 1.58579C15.2103 1.96086 15.4444 2.46957 15.4444 3V5M8.77778 10V16M13.2222 10V16" stroke="white" stroke-width="2" stroke-linecap="round" stroke-linejoin="round"/>
</svg>
