<svg width="22" height="25" viewBox="0 0 22 25" fill="none" xmlns="http://www.w3.org/2000/svg">
<path d="M13.5 1.33334H3.5C2.83696 1.33334 2.20107 1.56747 1.73223 1.98422C1.26339 2.40096 1 2.9662 1 3.55557V21.3333C1 21.9227 1.26339 22.4879 1.73223 22.9047C2.20107 23.3214 2.83696 23.5556 3.5 23.5556H18.5C19.163 23.5556 19.7989 23.3214 20.2678 22.9047C20.7366 22.4879 21 21.9227 21 21.3333V8.00001M13.5 1.33334L21 8.00001M13.5 1.33334V8.00001H21M16 13.5556H6M16 18H6M8.5 9.11112H6" stroke="white" stroke-width="2" stroke-linecap="round" stroke-linejoin="round"/>
</svg>
