<svg width="6" height="22" viewBox="0 0 6 22" fill="none" xmlns="http://www.w3.org/2000/svg">
<path d="M3 12.2472C3.69036 12.2472 4.25 11.6888 4.25 11C4.25 10.3112 3.69036 9.75281 3 9.75281C2.30964 9.75281 1.75 10.3112 1.75 11C1.75 11.6888 2.30964 12.2472 3 12.2472Z" stroke="white" stroke-width="2" stroke-linecap="round" stroke-linejoin="round"/>
<path d="M3 3.51685C3.69036 3.51685 4.25 2.95846 4.25 2.26965C4.25 1.58085 3.69036 1.02246 3 1.02246C2.30964 1.02246 1.75 1.58085 1.75 2.26965C1.75 2.95846 2.30964 3.51685 3 3.51685Z" stroke="white" stroke-width="2" stroke-linecap="round" stroke-linejoin="round"/>
<path d="M3 20.9776C3.69036 20.9776 4.25 20.4192 4.25 19.7304C4.25 19.0416 3.69036 18.4832 3 18.4832C2.30964 18.4832 1.75 19.0416 1.75 19.7304C1.75 20.4192 2.30964 20.9776 3 20.9776Z" stroke="white" stroke-width="2" stroke-linecap="round" stroke-linejoin="round"/>
</svg>
