<svg width="27" height="28" viewBox="0 0 27 28" fill="none" xmlns="http://www.w3.org/2000/svg">
<path d="M13.5 26.95C20.4036 26.95 26 21.3535 26 14.45C26 7.54639 20.4036 1.94995 13.5 1.94995C6.59644 1.94995 1 7.54639 1 14.45C1 21.3535 6.59644 26.95 13.5 26.95Z" stroke="white" stroke-width="2" stroke-linecap="round" stroke-linejoin="round"/>
<path d="M8.5 11.45C8.5 10.7499 8.5 10.3999 8.63624 10.1325C8.75608 9.89726 8.94731 9.70603 9.18251 9.58619C9.4499 9.44995 9.79993 9.44995 10.5 9.44995H16.5C17.2001 9.44995 17.5501 9.44995 17.8175 9.58619C18.0527 9.70603 18.2439 9.89726 18.3638 10.1325C18.5 10.3999 18.5 10.7499 18.5 11.45V17.45C18.5 18.15 18.5 18.5001 18.3638 18.7674C18.2439 19.0026 18.0527 19.1939 17.8175 19.3137C17.5501 19.45 17.2001 19.45 16.5 19.45H10.5C9.79993 19.45 9.4499 19.45 9.18251 19.3137C8.94731 19.1939 8.75608 19.0026 8.63624 18.7674C8.5 18.5001 8.5 18.15 8.5 17.45V11.45Z" stroke="white" stroke-width="2" stroke-linecap="round" stroke-linejoin="round"/>
</svg>
