<svg width="28" height="26" viewBox="0 0 28 26" fill="none" xmlns="http://www.w3.org/2000/svg">
<path d="M12.4671 4.58022C12.9626 4.50698 13.4736 4.46769 14 4.46769C20.223 4.46769 24.3065 9.95861 25.6783 12.1307C25.8444 12.3935 25.9274 12.525 25.9738 12.7277C26.0087 12.88 26.0087 13.1202 25.9738 13.2725C25.9273 13.4752 25.8437 13.6075 25.6765 13.8721C25.311 14.4506 24.7537 15.2636 24.0154 16.1452M7.56846 6.55814C4.9329 8.34584 3.14366 10.8296 2.32286 12.1288C2.15607 12.3928 2.07268 12.5248 2.0262 12.7275C1.99128 12.8798 1.99127 13.1199 2.02616 13.2722C2.07263 13.4749 2.15564 13.6064 2.32167 13.8692C3.69354 16.0413 7.77702 21.5322 14 21.5322C16.5092 21.5322 18.6705 20.6395 20.4465 19.4316M3.02903 2.02991L24.971 23.97M11.4141 10.4143C10.7523 11.076 10.343 11.9902 10.343 12.9999C10.343 15.0195 11.9803 16.6566 14 16.6566C15.0098 16.6566 15.9241 16.2473 16.5859 15.5856" stroke="#7BCBFF" stroke-width="2.5" stroke-linecap="round" stroke-linejoin="round"/>
</svg>
