<svg width="20" height="15" viewBox="0 0 20 15" fill="none" xmlns="http://www.w3.org/2000/svg">
<path d="M1.23751 8.0422C1.11493 7.84813 1.05364 7.75109 1.01933 7.60142C0.993557 7.48899 0.993557 7.31169 1.01933 7.19927C1.05364 7.0496 1.11493 6.95256 1.23751 6.75848C2.25046 5.1547 5.2656 1.10034 9.8605 1.10034C14.4554 1.10034 17.4705 5.1547 18.4835 6.75848C18.6061 6.95256 18.6674 7.0496 18.7017 7.19927C18.7274 7.31169 18.7274 7.48899 18.7017 7.60142C18.6674 7.75109 18.6061 7.84813 18.4835 8.0422C17.4705 9.64599 14.4554 13.7003 9.8605 13.7003C5.2656 13.7003 2.25046 9.64599 1.23751 8.0422Z" stroke="#0C98B4" stroke-width="2" stroke-linecap="round" stroke-linejoin="round"/>
<path d="M9.8605 10.1003C11.3518 10.1003 12.5607 8.89151 12.5607 7.40034C12.5607 5.90917 11.3518 4.70034 9.8605 4.70034C8.3692 4.70034 7.16027 5.90917 7.16027 7.40034C7.16027 8.89151 8.3692 10.1003 9.8605 10.1003Z" stroke="#0C98B4" stroke-width="2" stroke-linecap="round" stroke-linejoin="round"/>
</svg>
