<svg width="16" height="18" viewBox="0 0 16 18" fill="none" xmlns="http://www.w3.org/2000/svg">
<path d="M13.0961 8.95C13.0961 12.3139 10.8503 15.0409 8.08006 15.0409M13.0961 8.95C13.0961 5.58611 10.8503 2.85914 8.08006 2.85914M13.0961 8.95H14.3501M8.08006 15.0409C5.3098 15.0409 3.06406 12.3139 3.06406 8.95M8.08006 15.0409V16.5636M3.06406 8.95C3.06406 5.58611 5.3098 2.85914 8.08006 2.85914M3.06406 8.95H1.81006M8.08006 2.85914V1.33643M9.96106 8.95C9.96106 10.2115 9.11891 11.2341 8.08006 11.2341C7.04121 11.2341 6.19906 10.2115 6.19906 8.95C6.19906 7.68854 7.04121 6.66593 8.08006 6.66593C9.11891 6.66593 9.96106 7.68854 9.96106 8.95Z" stroke="white" stroke-width="2" stroke-linecap="round" stroke-linejoin="round"/>
</svg>
