<svg width="25" height="25" viewBox="0 0 25 25" fill="none" xmlns="http://www.w3.org/2000/svg">
<path d="M7.38889 1L17.6111 24M1 18.8889L12.5 12.5M7.13333 24H17.8667C20.0135 24 21.087 24 21.907 23.5822C22.6283 23.2147 23.2147 22.6283 23.5822 21.907C24 21.087 24 20.0135 24 17.8667V7.13333C24 4.98647 24 3.91303 23.5822 3.09304C23.2147 2.37175 22.6283 1.78532 21.907 1.41781C21.087 1 20.0135 1 17.8667 1H7.13333C4.98647 1 3.91303 1 3.09304 1.41781C2.37175 1.78532 1.78532 2.37175 1.41781 3.09304C1 3.91303 1 4.98647 1 7.13333V17.8667C1 20.0135 1 21.087 1.41781 21.907C1.78532 22.6283 2.37175 23.2147 3.09304 23.5822C3.91303 24 4.98647 24 7.13333 24Z" stroke="white" stroke-width="2" stroke-linecap="round" stroke-linejoin="round"/>
</svg>
