<svg width="31" height="31" viewBox="0 0 31 31" fill="none" xmlns="http://www.w3.org/2000/svg">
<path d="M8.92475 1.82373H8.61364C6.00006 1.82373 4.69327 1.82373 3.69502 2.33237C2.81693 2.77978 2.10302 3.49369 1.65561 4.37177C1.14697 5.37003 1.14697 6.67682 1.14697 9.2904V9.60151M8.92475 29.8237H8.61364C6.00006 29.8237 4.69327 29.8237 3.69502 29.3151C2.81693 28.8677 2.10302 28.1538 1.65561 27.2757C1.14697 26.2774 1.14697 24.9706 1.14697 22.3571V22.046M29.147 9.60151V9.2904C29.147 6.67682 29.147 5.37003 28.6383 4.37178C28.1909 3.49369 27.477 2.77978 26.5989 2.33237C25.6007 1.82373 24.2939 1.82373 21.6803 1.82373H21.3692M29.147 22.046V22.3571C29.147 24.9706 29.147 26.2774 28.6383 27.2757C28.1909 28.1538 27.477 28.8677 26.5989 29.3151C25.6007 29.8237 24.2939 29.8237 21.6803 29.8237H21.3692" stroke="white" stroke-width="2.15833" stroke-linecap="round" stroke-linejoin="round"/>
</svg>
