<svg width="16" height="18" viewBox="0 0 16 18" fill="none" xmlns="http://www.w3.org/2000/svg">
<path d="M14.4 16.112H8.60539M1 16.5L5.01945 14.8436C5.27654 14.7377 5.40509 14.6847 5.52535 14.6155C5.63218 14.5541 5.73402 14.4832 5.8298 14.4036C5.93764 14.3139 6.03503 14.2096 6.2298 14.0009L14.4 5.24715C15.2 4.38993 15.2 3.00012 14.4 2.14291C13.5999 1.2857 12.3027 1.2857 11.5027 2.14291L3.33252 10.8966C3.13774 11.1053 3.04036 11.2097 2.95667 11.3252C2.88235 11.4278 2.81616 11.5369 2.75882 11.6514C2.69426 11.7803 2.64482 11.918 2.54594 12.1934L1 16.5ZM1 16.5L2.49074 12.3473C2.59741 12.0501 2.65075 11.9015 2.74224 11.8335C2.82219 11.774 2.92112 11.7515 3.01672 11.7711C3.12612 11.7934 3.23119 11.906 3.44131 12.1311L5.07762 13.8843C5.28774 14.1095 5.3928 14.222 5.4137 14.3392C5.43195 14.4417 5.41096 14.5477 5.35545 14.6333C5.29192 14.7314 5.15325 14.7885 4.87589 14.9028L1 16.5Z" stroke="white" stroke-width="2" stroke-linecap="round" stroke-linejoin="round"/>
</svg>
