<svg width="24" height="24" viewBox="0 0 24 24" fill="none" xmlns="http://www.w3.org/2000/svg">
<path d="M12 23C18.0751 23 23 18.0751 23 12C23 5.92487 18.0751 1 12 1C5.92487 1 1 5.92487 1 12C1 18.0751 5.92487 23 12 23Z" stroke="white" stroke-width="2" stroke-linecap="round" stroke-linejoin="round"/>
<path d="M9.25 8.66187C9.25 8.13685 9.25 7.87435 9.35972 7.72779C9.45533 7.60008 9.60168 7.52018 9.76082 7.50881C9.94342 7.49577 10.1642 7.63772 10.6059 7.92163L15.7985 11.2598C16.1817 11.5061 16.3734 11.6293 16.4395 11.7859C16.4974 11.9228 16.4974 12.0772 16.4395 12.2141C16.3734 12.3707 16.1817 12.4939 15.7985 12.7402L10.6059 16.0784C10.1642 16.3623 9.94342 16.5042 9.76082 16.4912C9.60168 16.4798 9.45533 16.3999 9.35972 16.2722C9.25 16.1257 9.25 15.8631 9.25 15.3381V8.66187Z" stroke="white" stroke-width="2" stroke-linecap="round" stroke-linejoin="round"/>
</svg>
