<svg width="24" height="24" viewBox="0 0 24 24" fill="none" xmlns="http://www.w3.org/2000/svg">
<path d="M20.8 12C20.8 16.8601 16.8601 20.8 12 20.8M20.8 12C20.8 7.13989 16.8601 3.2 12 3.2M20.8 12H23M12 20.8C7.13989 20.8 3.2 16.8601 3.2 12M12 20.8V23M3.2 12C3.2 7.13989 7.13989 3.2 12 3.2M3.2 12H1M12 3.2V1M15.3 12C15.3 13.8225 13.8225 15.3 12 15.3C10.1775 15.3 8.7 13.8225 8.7 12C8.7 10.1775 10.1775 8.7 12 8.7C13.8225 8.7 15.3 10.1775 15.3 12Z" stroke="white" stroke-width="2" stroke-linecap="round" stroke-linejoin="round"/>
</svg>
