<svg width="30" height="27" viewBox="0 0 30 27" fill="none" xmlns="http://www.w3.org/2000/svg">
<path d="M14.9997 10V15M14.9997 20H15.0122M12.8622 3.57501L2.27472 21.25C2.05643 21.628 1.94093 22.0566 1.93971 22.4932C1.93848 22.9297 2.05158 23.3589 2.26775 23.7382C2.48392 24.1174 2.79563 24.4334 3.17186 24.6548C3.54808 24.8762 3.97572 24.9952 4.41222 25H25.5872C26.0237 24.9952 26.4514 24.8762 26.8276 24.6548C27.2038 24.4334 27.5155 24.1174 27.7317 23.7382C27.9479 23.3589 28.061 22.9297 28.0597 22.4932C28.0585 22.0566 27.943 21.628 27.7247 21.25L17.1372 3.57501C16.9144 3.20764 16.6006 2.90391 16.2262 2.69312C15.8518 2.48232 15.4294 2.37158 14.9997 2.37158C14.5701 2.37158 14.1476 2.48232 13.7732 2.69312C13.3988 2.90391 13.0851 3.20764 12.8622 3.57501Z" stroke="#C66E87" stroke-width="3" stroke-linecap="round" stroke-linejoin="round"/>
</svg>
