<svg width="22" height="26" viewBox="0 0 22 26" fill="none" xmlns="http://www.w3.org/2000/svg">
<path d="M11 19.6667C16.5228 19.6667 21 15.687 21 10.7778C21 5.86861 16.5228 1.88892 11 1.88892C5.47715 1.88892 1 5.86861 1 10.7778C1 15.687 5.47715 19.6667 11 19.6667ZM11 19.6667V24.1111M11 24.1111H4.75M11 24.1111H17.25M14.75 10.7778C14.75 12.6188 13.0711 14.1111 11 14.1111C8.92893 14.1111 7.25 12.6188 7.25 10.7778C7.25 8.93686 8.92893 7.44447 11 7.44447C13.0711 7.44447 14.75 8.93686 14.75 10.7778Z" stroke="white" stroke-width="2" stroke-linecap="round" stroke-linejoin="round"/>
</svg>
